P2
# CREATOR: XV version 3.10a-jumboFix+Enh of 20070520
# CREATOR: GIMP PNM Filter Version 1.1
148 80
255
253 252 252 251 251 250 250 249 249 248 248 248 247 247 247 246 246
246 246 246 246 246 246 246 246 246 246 247 247 247 247 248 248 249
249 249 250 250 250 250 250 250 250 250 250 250 250 250 249 249 249
249 248 248 248 247 247 247 246 246 246 246 246 246 246 246 246 246
247 247 247 248 248 248 248 249 249 249 250 250 250 250 250 250 250
249 249 249 248 248 248 248 247 247 247 246 246 246 246 246 246 246
246 246 246 246 246 246 246 247 247 247 248 248 249 249 249 250 250
251 251 252 252 253 253 253 254 254 254 254 255 255 255 255 255 255
255 255 255 255 255 255 255 255 255 255 255 255 252 251 251 250 250
249 249 248 247 247 246 246 246 245 245 244 244 244 244 244 244 244
244 244 244 244 244 245 245 245 246 246 246 247 247 248 248 248 248
249 249 249 249 249 249 249 248 249 248 247 247 247 246 246 246 245
245 245 244 244 244 244 244 244 244 244 244 244 245 245 245 246 246
246 247 247 248 248 248 249 248 249 248 249 248 248 248 247 247 247
246 246 246 245 245 245 244 244 244 244 244 244 244 244 244 244 244
244 244 245 245 246 246 246 247 247 248 249 249 250 250 251 252 252
253 253 253 254 254 254 254 255 255 255 255 255 255 255 255 255 255
255 255 255 255 255 255 255 251 251 250 249 249 248 247 247 246 245
245 244 244 243 243 243 242 242 242 242 242 242 242 242 242 242 243
243 243 244 244 244 245 245 246 246 246 247 247 247 247 248 248 248
248 247 247 247 247 246 246 245 245 244 244 244 243 243 243 242 242
242 241 241 242 242 242 242 243 243 244 244 244 245 245 246 246 246
247 247 247 247 247 247 247 247 246 246 245 245 245 244 244 243 243
243 243 242 242 242 242 241 242 242 242 242 242 242 242 243 243 244
244 245 245 246 247 247 248 249 250 250 251 252 252 253 253 254 254
254 254 255 255 255 255 255 255 255 255 255 255 255 255 255 255 255
255 255 251 250 249 248 247 247 246 245 244 243 243 242 241 241 240
240 240 240 239 239 239 239 239 239 239 240 240 241 241 241 242 242
243 243 244 244 244 245 245 246 246 246 246 246 246 246 246 245 245
244 244 243 243 242 242 241 241 240 240 239 239 239 239 239 239 239
240 240 240 241 241 242 242 243 244 244 244 245 245 245 245 245 245
245 245 245 244 244 243 243 243 242 242 241 241 240 240 240 239 239
239 239 239 239 239 239 239 240 240 241 241 242 242 243 244 244 245
246 247 248 249 249 250 251 252 252 253 253 254 254 254 255 255 255
255 255 255 255 255 255 255 255 255 255 255 255 255 255 250 249 248
247 246 245 244 243 242 241 241 240 239 238 238 238 237 237 237 237
237 237 237 237 237 238 237 238 238 238 239 240 240 241 241 242 243
243 244 244 244 244 245 245 244 244 244 243 243 242 242 241 241 240
239 239 238 238 237 237 237 237 237 237 237 237 237 237 238 238 239
240 240 241 241 242 242 243 243 244 244 244 244 244 243 243 242 242
241 241 240 240 239 238 238 238 237 237 237 237 237 236 236 236 237
237 237 237 238 238 239 239 240 241 242 243 244 245 245 247 248 248
250 250 251 252 252 253 253 254 254 254 254 255 255 255 255 255 255
255 255 255 255 255 255 255 255 255 249 248 247 246 245 244 242 241
240 239 238 237 237 236 235 235 235 234 234 234 234 234 234 234 234
234 235 235 235 236 237 237 238 238 239 240 240 241 241 242 242 243
243 243 243 242 242 241 241 240 240 239 238 238 237 236 236 235 235
235 234 234 234 234 234 234 234 235 235 236 236 237 237 238 239 239
240 241 241 242 242 242 242 242 241 241 240 240 239 239 238 238 237
236 236 235 235 234 234 234 234 233 233 234 234 234 234 235 235 236
236 237 238 239 240 241 242 243 244 245 246 247 249 249 250 251 252
253 253 253 254 254 254 255 255 255 255 255 255 255 255 255 255 255
255 255 255 255 248 247 246 244 243 242 241 239 238 237 236 235 234
233 233 232 232 232 231 231 231 231 231 231 232 232 232 233 233 233
234 234 235 236 237 238 238 239 239 240 240 240 240 241 241 241 240
239 239 238 237 237 236 235 235 234 233 232 232 231 231 231 231 231
231 232 231 232 232 233 233 234 235 236 236 237 238 239 239 239 239
240 239 240 239 239 238 238 237 236 235 235 234 233 233 232 232 232
231 231 230 231 230 231 231 231 232 232 233 233 234 235 236 237 237
239 240 241 243 244 245 247 248 249 250 251 251 252 253 253 254 254
254 255 255 255 255 255 255 255 255 255 255 255 255 255 255 255 247
246 244 243 241 240 239 237 236 235 233 233 231 230 230 229 229 229
228 228 228 228 228 228 228 228 229 229 230 231 231 232 232 233 234
235 236 236 237 238 238 238 238 238 238 238 237 237 237 236 235 234
234 232 232 231 231 230 229 229 229 228 228 228 228 229 229 229 230
230 231 232 232 233 234 235 236 236 237 237 238 238 238 237 237 237
236 235 235 234 233 232 232 231 230 230 229 229 228 228 228 228 228
228 228 228 229 229 230 230 231 232 233 234 236 237 238 240 241 243
244 245 247 248 249 250 251 252 252 253 254 254 254 255 255 255 255
255 255 255 255 255 255 255 255 255 255 255 246 245 243 242 240 238
237 235 234 232 231 229 229 228 227 226 226 226 225 225 225 225 225
225 225 226 226 227 227 228 228 229 229 230 231 232 233 234 235 235
236 236 236 236 236 236 236 235 234 234 233 232 231 230 230 229 228
227 226 226 226 226 226 226 226 226 226 227 227 227 228 229 229 230
232 232 233 234 234 234 235 235 235 235 234 234 233 233 232 231 230
229 229 228 227 227 226 225 225 225 224 224 225 225 225 225 226 226
227 228 229 230 231 233 234 235 237 238 240 241 243 244 246 247 249
250 251 251 252 253 253 254 254 255 255 255 255 255 255 255 255 255
255 255 255 255 255 255 245 243 242 240 238 236 235 233 232 230 228
227 226 225 224 224 223 222 222 222 222 222 221 222 222 223 223 223
224 225 225 226 227 228 229 230 231 231 232 233 233 234 234 234 234
234 233 233 233 232 231 229 229 228 227 226 226 225 224 223 223 223
222 222 222 223 223 223 224 224 225 226 227 228 229 230 230 231 232
233 233 233 233 232 232 232 231 230 229 228 227 227 226 225 224 223
223 222 222 221 222 222 222 222 222 222 223 224 224 225 226 227 228
230 232 233 235 237 238 240 242 244 245 246 248 249 250 251 252 253
253 254 254 254 255 255 255 255 255 255 255 255 255 255 255 255 255
255 244 242 240 238 237 235 232 231 229 227 226 224 223 222 222 220
220 219 219 219 219 218 219 219 219 219 220 221 221 221 222 223 224
225 226 227 228 229 230 231 231 232 232 232 232 232 232 230 230 229
228 227 226 226 225 223 223 222 221 220 221 220 220 220 220 220 220
220 221 222 223 223 225 225 226 227 228 229 230 230 230 230 231 230
230 229 228 228 227 226 224 224 223 222 222 220 220 219 219 219 218
218 218 219 219 220 220 221 222 223 223 225 226 228 229 231 233 235
237 239 241 243 244 246 248 249 250 251 252 253 253 254 254 254 255
255 255 255 255 255 255 255 255 255 255 255 255 255 243 241 239 237
235 233 231 229 225 162 165 164 162 162 161 161 160 160 159 159 159
159 159 159 160 164 169 173 184 198 213 221 221 222 224 224 226 227
227 228 229 229 230 230 230 229 229 228 228 227 226 226 224 223 222
204 180 157 133 109  86  63  40  17  15  35  63  91 119 150 195 220
221 223 224 225 225 226 227 228 228 228 228 228 227 227 226 225 224
220 165 163 162 162 161 161 160 160 159 159 159 159 159 159 160 160
161 161 162 162 163 165 166 167 168 178 231 234 236 238 240 242 244
245 247 248 250 251 252 252 253 254 254 254 254 255 255 255 255 255
255 255 255 255 255 255 255 255 242 240 238 235 233 231 229 227 182
 17  19  19  19  19  19  19  19  19  19  19  19  19  19  19  19  19
 20  21  28  33  42  77 150 220 221 222 223 224 225 226 227 227 228
228 228 228 227 226 226 225 224 223 206 113  50  36  24  20  21  21
 22  23  25  25  25  25  23  22  21  20  29  82 200 220 221 222 223
223 224 225 226 225 225 226 225 224 223 222 221 195  17  19  19  19
 19  19  19  19  19  19  19  19  19  19  19  19  19  19  19  19  19
 19  19  19  19  76 230 232 235 237 239 241 243 245 246 248 249 250
251 252 253 253 254 254 254 255 255 255 255 255 255 255 255 255 255
255 255 255 241 239 236 234 231 229 227 225 121  20  28  29  29  30
 30  29  29  29  29  29  29  30  29  29  29  29  28  28  27  25  24
 22  18  27 143 212 221 222 223 224 224 225 226 226 226 225 226 225
224 224 147  55  16  20  23  26  27  30  30  32  33  34  34  36  36
 35  34  32  31  30  27  21  16  98 207 220 220 222 222 223 223 224
224 223 223 222 221 220 220 137  20  29  30  29  30  29  29  29  29
 29  29  29  29  29  29  29  29  29  29  30  30  29  30  28  18 141
229 232 234 236 238 240 243 244 246 247 249 250 251 252 253 253 254
254 254 255 255 255 255 255 255 255 255 255 255 255 255 255 240 237
235 233 230 228 226 223  64  21  33  40  39  40  40  40  40  41  40
 40  40  40  41  41  40  39  38  38  37  36  34  31  30  25  20  59
204 220 220 221 222 224 224 224 224 224 224 224 222 210  16  23  28
 30  34  35  38  40  42  43  42  42  44  45  46  46  44  43  41  41
 36  32  27  21  50 199 218 219 220 221 221 221 221 221 221 220 219
218 217  78  22  33  39  39  40  40  40  40  39  39  40  40  40  39
 39  39  39  40  39  40  39  40  37  28  17 203 228 230 233 235 238
240 242 244 246 247 249 250 251 252 253 253 254 254 254 255 255 255
255 255 255 255 255 255 255 255 255 255 239 236 234 232 228 226 224
221  24  25  33  45  50  50  51  51  50  47  40  41  41  41  41  42
 43  44  48  49  48  46  45  43  40  36  30  23  51 218 219 220 221
221 222 223 223 223 222 222 221 152  18  29  37  40  43  44  42  40
 37  35  34  35  35  37  40  46  54  53  52  51  47  42  37  32  23
 65 216 217 218 218 219 219 219 219 219 218 217 216 215  24  24  34
 45  50  50  50  49  48  49  49  48  48  48  48  49  48  48  49  48
 48  49  47  34  24  19 225 227 230 233 235 238 240 242 244 246 247
249 250 251 252 253 253 254 254 254 255 255 255 255 255 255 255 255
255 255 255 255 255 238 235 233 230 227 224 222 195  24  27  36  47
 56  61  61  55  46  35  30  31  30  30  30  31  31  34  39  49  56
 57  54  52  49  45  41  32  21  98 218 218 219 221 221 222 221 221
222 221 221  95  20  31  42  42  38  35  31  29  26  25  24  23  25
 26  31  36  46  56  61  61  57  52  47  40  31  19 119 216 216 217
217 217 217 217 216 216 216 214 197  16  27  36  46  57  60  53  47
 38  37  37  37  37  37  37  37  38  38  37  38  37  37  37  34  22
 61 224 227 229 232 234 237 239 241 244 245 247 249 250 251 252 253
253 254 254 254 255 255 255 255 255 255 255 255 255 255 255 255 255
237 234 232 229 226 223 221 166  21  27  38  48  59  67  55  44  35
 24  20  20  20  20  20  21  22  23  28  40  48  60  65  62  60  55
 46  36  25  39 204 218 218 219 220 220 220 221 221 220 220  53  24
 33  36  34  27  25  21  21  23  24  24  24  24  23  21  25  37  46
 56  67  68  63  55  44  34  25  31 211 215 215 215 215 215 216 215
215 214 212 148  17  28  38  48  59  56  47  37  29  27  27  27  27
 27  27  27  27  27  27  28  28  27  28  27  22 102 223 226 229 231
234 237 239 242 243 246 247 249 250 251 252 253 253 254 254 254 255
255 255 255 255 255 255 255 255 255 255 255 255 236 233 230 228 225
222 220 138  20  30  40  51  60  55  44  34  23  38 126 121 121 121
121 118  99  72  18  28  38  49  59  70  68  58  48  38  28  25 177
216 218 218 219 220 220 221 221 220 203  40  26  30  25  21  17  62
111 149 181 196 209 207 197 179 126  40  25  36  46  56  67  68  58
 48  38  28  24 171 213 214 214 214 214 213 214 212 212 211 103  20
 30  40  52  53  47  37  27  17  16  16  16  16  16  16  16  16  16
 16  16  16  16  16  16  16 139 223 226 229 231 234 237 239 241 244
246 247 249 250 251 252 253 253 254 254 254 255 255 255 255 255 255
255 255 255 255 255 255 255 235 232 229 226 224 220 218 104  21  31
 41  53  59  50  40  31  19  91 200 200 200 199 199 200 200 200 184
 40  29  38  48  60  69  59  48  39  29  19 167 216 217 218 219 219
220 220 220 220 187  27  24  22  19  93 202 213 212 211 211 210 208
208 207 206 206 199  38  25  36  46  56  67  59  49  39  29  20 153
212 213 212 212 213 212 213 212 210 210  67  22  33  43  50  48  36
 26  67 202 201 201 200 201 201 202 202 203 204 205 206 209 210 212
215 218 220 223 226 229 231 234 237 239 242 244 246 247 249 250 251
252 253 253 254 254 254 255 255 255 255 255 255 255 255 255 255 255
255 255 234 231 228 226 223 220 217  68  23  33  44  54  58  49  38
 28  17 142 200 199 199 199 200 200 199 199 200 145  19  29  39  50
 60  60  48  38  28  18 162 215 216 217 218 219 219 220 220 220 162
 17  58 135 210 216 215 214 212 212 211 209 208 208 206 206 205 204
141  19  30  39  50  60  61  50  40  29  19 142 211 212 211 212 212
211 211 211 210 198  49  24  35  45  49  38  29  18  95 201 199 200
199 200 201 201 202 202 204 205 207 208 210 213 215 217 220 223 225
228 231 234 237 239 241 244 246 247 249 250 251 252 253 253 254 254
254 255 255 255 255 255 255 255 255 255 255 255 255 255 233 230 227
225 221 218 216  35  25  36  45  56  58  48  38  28  16 193 199 199
198 198 199 199 199 198 199 200  14  25  36  46  56  59  48  36  26
 24 175 214 216 217 219 219 220 220 220 221 137 170 217 218 217 216
215 214 212 212 211 209 209 207 207 206 205 204 187  16  26  36  46
 57  59  49  38  28  19 151 211 210 211 212 211 210 211 210 209 189
 30  25  37  47  49  37  27  16 138 200 200 200 200 200 199 200 201
201 203 204 206 207 209 212 214 217 220 223 225 229 231 234 237 239
241 244 246 247 249 250 251 252 253 253 254 254 254 255 255 255 255
255 255 255 255 255 255 255 255 255 232 230 226 224 221 217 208  16
 27  37  48  58  55  44  34  24  27 199 198 198 198 198 197 198 197
198 199 191  15  26  36  46  57  57  46  35  25  30 186 215 216 217
219 220 220 220 220 220 220 220 219 219 217 217 216 214 213 211 210
209 209 207 207 205 205 204 205  14  25  35  45  56  58  47  36  26
 23 167 209 211 211 211 210 211 209 209 209 176  17  29  38  49  47
 36  27  15 180 200 199 199 198 199 199 199 200 202 203 203 206 207
210 211 214 217 220 222 226 228 231 234 237 239 242 244 246 248 249
250 251 252 253 253 254 254 254 255 255 255 255 255 255 255 255 255
255 255 255 255 232 228 225 223 220 217 155  19  30  40  49  58  53
 43  33  22  60 197 197 198 198 197 198 197 197 197 198 152  18  27
 37  48  58  54  43  33  23  36 200 214 216 218 218 220 221 221 221
221 220 221 220 219 218 217 216 215 214 213 211 210 209 208 207 205
204 205 180  15  26  36  47  58  57  45  35  25  26 184 209 210 210
211 211 210 210 209 208 131  20  31  40  50  44  33  23  16 199 200
199 198 199 199 199 199 201 201 203 204 206 207 210 211 214 217 220
222 225 229 232 235 237 240 242 244 246 248 249 250 251 252 253 254
254 254 255 255 255 255 255 255 255 255 255 255 255 255 255 255 230
227 225 221 219 216  99  21  31  42  52  60  51  41  31  21  95 197
197 196 196 196 196 197 198 197 198  87  22  33  43  54  63  51  41
 31  20  99 213 215 216 218 219 220 221 222 222 222 222 221 220 220
219 218 216 215 213 213 211 210 209 207 206 205 204 204 140  18  28
 39  49  59  54  44  33  23  36 206 210 210 210 211 210 209 210 209
208  79  22  33  43  53  43  33  23  70 195 168 156 150 146 154 166
178 190 201 202 203 206 207 209 211 214 217 220 223 226 229 231 235
237 240 242 244 246 248 249 250 252 252 253 254 254 254 255 255 255
255 255 255 255 255 255 255 255 255 255 255 230 226 224 221 218 215
 43  23  34  43  54  61  50  39  28  19 126 197 197 197 196 197 196
196 196 197 154  18  30  39  49  58  57  47  37  26  17 211 212 214
216 218 219 220 221 222 222 222 222 222 220 220 219 218 216 216 214
212 211 210 209 208 206 205 205 202  65  24  34  43  54  58  47  36
 28  15 135 209 210 210 210 211 210 210 210 208 207  26  24  35  45
 54  53  42  32  34  35  27  22  19  19  20  26  30  35  38  96 202
206 207 209 211 214 217 220 223 226 229 232 235 237 240 242 244 246
248 249 250 252 252 253 254 254 254 255 255 255 255 255 255 255 255
255 255 255 255 255 255 228 225 222 220 217 213  15  25  35  45  56
 58  48  37  27  20 153 196 197 196 197 197 194 187 174  93  17  30
 39  49  58  56  47  41  30  18 126 211 213 214 216 218 220 221 222
222 222 223 222 222 221 221 219 218 216 216 215 213 212 210 209 208
206 205 205 162  18  29  39  50  60  56  45  36  25  35 208 209 210
211 211 211 211 210 209 209 199  16  27  37  47  57  62  53  42  32
 24  27  28  29  29  28  26  26  25  25  20  20 128 191 209 212 214
217 220 223 226 229 232 235 238 240 242 244 246 248 249 250 252 252
253 254 254 254 255 255 255 255 255 255 255 255 255 255 255 255 255
255 227 224 221 219 216 178  19  27  37  47  58  63  52  42  32  24
 49  57  57  57  57  57  51  42  30  21  29  40  48  57  56  47  37
 30  24  90 208 212 213 215 217 218 219 221 221 222 223 223 222 222
221 221 219 218 217 215 214 212 212 210 208 208 206 205 170  23  27
 37  47  57  61  50  40  30  20 141 209 209 210 211 211 211 210 211
209 210 148  18  29  38  50  55  55  54  51  43  34  37  39  40  39
 39  37  37  35  34  32  25  20  33 139 211 214 217 220 223 226 229
232 235 237 240 242 244 246 248 250 250 252 253 253 254 254 254 255
255 255 255 255 255 255 255 255 255 255 255 255 255 226 223 221 218
215 142  20  28  39  49  59  68  64  52  43  32  23  22  22  23  22
 22  23  25  26  32  38  49  58  56  49  37  27  20  80 208 210 211
213 215 217 218 219 221 221 222 223 222 222 222 221 220 219 218 217
215 214 212 211 209 208 208 206 190  44  26  35  46  56  64  60  50
 40  28  67 207 210 211 211 211 211 211 211 210 211 209  98  20  30
 41  48  47  44  43  42  42  42  44  44  47  49  48  48  46  45  44
 41  36  30  27  18 140 214 217 220 223 226 229 232 235 237 240 242
244 246 248 250 251 252 253 253 254 254 254 255 255 255 255 255 255
255 255 255 255 255 255 255 255 225 222 219 216 214 111  21  31  40
 52  62  72  74  64  53  43  33  32  32  32  32  32  33  35  37  42
 49  57  57  48  37  26  68 150 206 207 210 212 214 215 216 218 219
220 221 222 223 223 222 221 221 220 219 218 216 214 213 212 211 209
208 207 175  43  25  37  45  56  61  60  48  38  28  57 201 210 211
211 212 211 212 211 211 211 210 211  56  23  33  40  38  37  34  33
 32  31  31  32  33  36  42  49  57  57  55  54  51  46  42  37  29
 23 183 217 220 223 226 229 232 235 238 240 242 244 246 248 249 251
252 253 253 254 254 255 255 255 255 255 255 255 255 255 255 255 255
255 255 255 223 221 217 216 210  81  23  32  42  53  63  74  73  62
 52  49  44  42  42  42  42  42  43  45  47  52  58  57  48  38  28
 99 197 205 206 207 210 212 214 215 216 218 220 220 222 221 222 222
221 221 220 219 218 217 215 214 213 211 210 208 208 171  26  25  36
 46  56  58  52  49  40  28  49 199 209 211 211 212 212 212 212 212
212 211 211 200  42  24  32  32  27  28  24  23  22  21  21  21  23
 26  31  38  49  60  65  65  62  56  51  44  33  22  72 217 220 223
226 229 232 235 238 240 242 245 247 248 249 251 252 252 253 254 254
255 255 255 255 255 255 255 255 255 255 255 255 255 255 255 222 219
217 214 208  52  25  34  44  55  65  73  62  52  41  37  38  39  38
 38  39  39  40  42  48  57  66  66  57  46  36  25  37 124 206 207
210 212 213 215 216 218 219 220 221 221 222 221 220 220 219 218 218
216 214 214 212 210 209 208 114  23  26  35  46  57  58  53  41  39
 28  63 192 209 210 211 212 212 212 213 213 213 213 213 211 184  29
 24  25  19  16  40  57  75  93 112 118  95  72  27  20  29  39  49
 59  69  73  66  59  47  38  27  16 203 220 223 226 229 232 235 238
240 243 245 247 248 249 251 252 252 253 254 254 255 255 255 255 255
255 255 255 255 255 255 255 255 255 255 220 218 215 213 204  26  26
 36  47  57  68  62  52  41  31  27  28  27  27  28  27  28  29  32
 38  47  58  69  67  57  47  36  27  19 140 208 210 211 212 214 216
218 219 219 220 220 221 221 220 219 219 217 216 215 213 213 211 209
208  67  20  30  37  45  56  55  52  43  32  28  71 204 209 210 210
211 212 212 213 213 214 214 214 213 212 170  18  18  50 125 197 206
205 206 205 203 203 202 202 202 110  24  28  40  49  59  69  73  62
 50  40  30  20 117 220 223 226 229 232 235 238 240 242 245 247 248
249 251 252 252 253 254 254 255 255 255 255 255 255 255 255 255 255
255 255 255 255 255 218 216 213 212 186  17  28  39  49  59  62  52
 41  32  21  16  16  17  16  16  17  17  18  21  28  38  47  58  69
 67  57  47  36  28  17 172 210 211 212 214 215 217 218 219 220 220
220 220 219 219 218 216 215 214 213 211 210 157  36  22  32  39  47
 56  55  45  42  31  20 103 207 208 209 210 211 212 212 213 214 213
214 214 213 213 213 182 151 198 210 210 208 207 207 205 205 204 204
202 203 202 201 172  24  28  39  48  59  69  63  52  42  32  21  73
220 223 226 229 232 235 237 240 242 245 247 248 250 251 252 252 253
254 254 255 255 255 255 255 255 255 255 255 255 255 255 255 255 255
216 214 212 211 132  20  31  41  51  59  52  41  31  21  84 197 194
193 193 192 192 172 144  76  16  27  37  47  58  68  63  53  43  34
 22  71 209 211 212 213 214 216 217 218 218 219 218 218 217 217 216
215 214 212 212 210 104  18  28  34  41  51  54  50  45  36  32  21
137 206 207 208 210 211 211 212 212 213 214 215 214 214 214 214 213
213 212 211 210 210 208 208 208 207 205 205 204 203 202 202 202 202
170  18  29  39  49  60  63  53  43  32  23  49 220 223 226 229 232
235 238 240 242 245 246 248 250 251 252 252 253 254 254 255 255 255
255 255 255 255 255 255 255 255 255 255 255 255 215 213 211 209  78
 21  32  43  52  60  51  40  30  19 126 198 198 197 196 196 197 197
197 198 176  38  27  37  47  58  65  57  46  36  26  35 192 211 211
213 214 216 216 216 217 217 217 217 216 215 215 214 213 211 186  68
 20  29  37  43  52  55  48  39  35  25  49 165 206 207 207 208 210
210 212 213 213 213 215 215 215 214 215 213 213 213 212 212 211 210
209 209 207 206 206 206 205 205 203 203 203 202 198  52  25  34  45
 55  62  53  42  32  22  44 220 223 226 229 232 235 238 240 243 245
247 248 250 251 252 252 253 254 254 255 255 255 255 255 255 255 255
255 255 255 255 255 255 255 213 211 210 208  26  24  34  44  55  60
 48  38  27  19 152 198 197 197 197 197 197 198 198 198 198 139  18
 28  39  49  59  59  48  37  27  25 183 210 211 212 213 214 215 215
216 216 216 216 214 214 213 212 211 149  24  24  30  39  48  53  51
 48  38  30  24  64 198 205 205 206 208 208 209 211 211 213 214 214
214 214 214 215 215 213 214 212 212 212 211 210 209 209 208 208 207
206 205 205 204 203 202 203 202  80  22  32  42  53  61  51  41  31
 21  71 220 223 227 229 233 236 238 240 243 245 247 248 250 251 252
253 253 254 254 255 255 255 255 255 255 255 255 255 255 255 255 255
255 255 211 209 208 197  15  27  36  46  57  57  45  35  25  27 170
197 197 197 198 197 198 197 198 197 198 189  16  26  37  47  57  60
 49  38  28  17 176 210 210 212 212 214 215 214 215 214 215 214 214
213 212 204 113  18  27  34  41  49  57  50  40  39  27  25 118 204
204 204 205 207 207 208 210 211 212 212 213 214 214 215 214 214 215
213 214 212 212 211 211 211 209 209 208 207 207 207 206 205 205 204
203 202 202  85  21  32  42  53  60  51  40  31  19  98 222 224 227
230 233 236 238 241 243 245 247 248 250 251 252 253 253 254 254 255
255 255 255 255 255 255 255 255 255 255 255 255 255 255 210 208 207
157  17  27  37  48  59  54  43  33  24  35 189 197 198 197 198 198
197 198 198 199 198 193  15  26  37  47  56  59  48  38  28  16 176
210 210 211 212 212 213 214 213 213 214 212 212 211 194  49  21  29
 36  45  52  52  50  41  32  28  42 178 202 203 203 204 205 207 208
208 209 211 212 213 213 214 214 214 214 215 214 214 214 212 213 211
211 210 209 209 209 208 207 207 206 205 204 204 204 204 200  59  23
 34  45  55  59  49  39  28  17 122 221 225 228 231 233 236 239 241
243 245 247 249 250 251 252 253 253 254 254 255 255 255 255 255 255
255 255 255 255 255 255 255 255 255 209 207 205 118  19  30  40  50
 61  53  42  32  22  49 198 198 197 197 198 199 199 199 199 198 199
155  17  28  37  48  59  58  47  37  27  23 182 209 210 211 211 212
213 213 212 212 212 212 211 150  16  24  32  40  47  55  50  44  40
 30  20  78 199 202 203 204 203 204 205 207 208 208 209 211 212 212
213 214 214 214 214 214 213 213 214 213 212 212 211 210 209 209 208
208 207 206 206 205 205 204 205 204 198  33  26  36  45  57  57  47
 36  26  15 195 222 226 228 231 234 237 239 241 244 246 247 249 250
251 252 253 253 254 254 255 255 255 255 255 255 255 255 255 255 255
255 255 255 255 207 206 205  83  21  31  41  52  60  50  39  30  18
 95 199 199 199 199 198 198 199 199 198 200 199 115  19  29  39  50
 61  56  46  35  24  31 189 209 210 210 211 212 211 212 211 212 211
211  81  19  27  36  42  49  57  54  45  34  30  24 145 202 201 203
202 204 203 205 206 207 207 208 209 211 211 213 213 213 213 214 214
213 214 214 213 212 211 212 211 211 210 209 209 208 207 207 207 205
205 204 204 204 154  19  29  39  50  59  54  43  33  23  44 220 223
226 229 231 234 237 240 242 244 246 248 249 250 251 252 253 253 254
254 255 255 255 255 255 255 255 255 255 255 255 255 255 255 255 206
206 200  62  23  33  44  54  58  48  38  28  17 144 198 198 198 200
199 200 200 200 199 200 187  37  26  35  45  56  65  53  42  32  22
 52 203 209 210 211 211 211 211 211 211 210 180  36  23  30  37  44
 53  59  54  45  34  23  46 178 202 201 201 203 203 203 205 205 206
207 207 209 210 211 211 212 213 214 213 214 213 213 196 208 213 212
211 211 211 210 209 209 209 208 207 207 207 206 205 205 205 185  16
 27  37  47  57  62  50  40  29  20 118 222 224 227 229 232 235 237
239 242 244 246 246 247 249 251 252 253 254 254 254 255 255 255 255
255 255 255 255 255 255 255 255 255 255 255 206 204 193  40  26  36
 46  57  56  46  36  27  15 196 199 200 200 199 200 200 200 201 201
200  81  23  34  44  55  64  59  49  39  28  18 103 209 210 211 210
211 211 211 211 211 118  28  24  35  39  48  56  58  54  45  33  23
104 197 201 201 201 202 203 203 203 205 205 206 207 208 209 210 211
212 212 212 214 214 214 213 214  48  63 160 212 212 211 211 210 210
209 208 209 208 207 207 207 206 205 205  56  26  38  46  57  63  55
 45  35  26  24 188 223 225 227 229 231 233 235 236 236 237 239 240
242 245 247 251 253 254 254 254 255 255 255 255 255 255 255 255 255
255 255 255 255 255 255 205 205 187  21  27  37  48  59  54  44  34
 23  29 200 201 201 200 200 200 200 197 195 161  31  24  35  44  54
 65  68  57  45  35  24  15 186 210 210 211 211 211 212 211 211  85
 21  27  34  43  50  59  60  55  46  34  25 143 195 187 187 188 188
188 187 188 189 189 191 192 192 193 194 195 209 212 212 213 213 214
213 214 207  23  22  17  54 164 203 209 210 209 210 208 209 208 207
207 207 205 159  30  26  36  46  58  68  64  54  43  33  22  91 221
222 224 226 226 225 225 223 224 222 221 222 225 229 233 240 246 250
253 254 254 255 255 255 255 255 255 255 255 255 255 255 255 255 255
255 205 204 163  18  29  40  49  60  58  48  38  27  36  92  89  88
 89  89  88  77  61  46  18  23  35  44  55  63  62  60  52  39  29
 18 127 210 211 211 211 211 211 212 212 205  16  27  36  46  55  60
 69  71  67  56  47  35  24  17  17  17  17  17  17  17  17  17  17
 17  17  17  17  18  16 181 212 213 213 213 213 213 214 178  23  26
 29  23  19  38  79 115 157 188 202 208 209 181 153 126  64  18  26
 37  47  57  64  61  60  47  31  21  26 219 221 221 221 217 216 210
207 201 202 196 198 195 200 203 215 224 236 245 250 253 254 255 255
255 255 255 255 255 255 255 255 255 255 255 255 255 205 205 111  20
 31  41  51  62  68  58  47  38  27  21  21  21  21  22  21  22  23
 25  29  34  44  55  58  56  51  50  42  36  28  62 206 211 211 212
212 213 212 212 212 152  18  29  39  49  60  69  70  69  69  67  56
 45  35  28  29  29  28  28  29  28  28  28  28  28  28  29  29  25
 37 195 212 213 214 213 214 214 214 150  21  29  37  34  29  26  22
 20  18  16  15  15  15  16  17  18  24  30  36  47  56  60  55  51
 49  40  28  28 187 220 220 215 212 203 197 187 182 172 169 162 163
158 164 168 185 200 220 234 245 251 255 255 255 255 255 255 255 255
255 255 255 255 255 255 255 255 206 205  61  23  33  43  54  59  59
 60  56  49  37  31  31  31  32  32  31  33  33  35  40  46  51  51
 48  46  40  39  31  24  63 193 212 213 213 213 213 214 214 214 213
 94  21  31  42  53  59  60  59  60  59  59  60  55  46  37  39  38
 39  38  38  38  38  38  39  39  38  38  33  24  52 207 213 214 215
215 214 214 215 123  20  30  42  45  39  35  32  30  28  26  25  24
 25  27  28  29  34  39  48  54  53  50  46  40  38  28  25 165 219
218 215 207 197 181 171 158 148 138 133 127 122 122 122 130 144 167
193 217 234 247 254 255 255 255 255 255 255 255 255 255 255 255 255
255 255 255 208 207  14  25  35  46  49  50  50  49  49  49  47  41
 42  41  41  41  42  42  44  45  46  44  43  41  38  36  29  30  21
 68 209 213 214 214 215 216 216 216 215 214 214  36  23  33  44  49
 49  50  49  49  50  49  50  49  50  48  48  49  48  50  49  49  48
 49  49  48  49  43  32  22  74 214 215 215 215 216 216 216 216  87
 23  33  43  47  49  47  43  40  38  36  35  35  35  36  38  40  44
 49  48  45  43  39  35  30  28  29 181 220 219 215 207 192 173 156
141 127 114 108 100  97  91  89  88  93 105 129 164 195 220 239 250
255 255 255 255 255 255 255 255 255 255 255 255 255 255 255 209 187
 16  28  36  40  39  39  39  39  39  39  39  39  39  40  40  39  39
 38  37  37  36  34  32  30  28  25  19  46 135 215 215 216 217 217
217 217 217 217 216 217 208  15  26  34  39  39  39  39  38  38  39
 39  39  39  38  38  39  39  40  39  40  39  39  38  39  38  39  38
 29  17 117 215 216 216 216 217 217 216 217  52  25  31  34  37  39
 41  43  43  44  43  43  42  42  44  44  44  43  40  39  36  32  30
 24  18  86 201 221 221 218 210 197 174 148 130 113 104  94  87  80
 78  75  72  69  71  82 104 132 165 197 224 242 253 255 255 255 255
255 255 255 255 255 255 255 255 255 255 211 144  17  27  28  28  28
 28  28  28  28  28  28  29  28  28  28  29  28  27  27  27  26  23
 22  20  17  42 141 210 217 217 218 218 219 219 220 219 219 219 218
219 172  18  26  28  28  28  28  29  28  28  29  29  29  28  28  28
 28  28  28  28  29  28  28  28  28  29  29  28  28  16 163 217 217
218 218 218 218 218 218  15  19  21  25  27  29  31  31  31  33  34
 35  36  35  34  34  33  32  30  29  26  22  19  41 167 218 222 223
222 216 204 185 158 129 109  95  89  83  76  71  70  70  65  59  61
 67  81 103 135 166 201 228 245 252 255 255 255 255 255 255 255 255
255 255 255 255 255 213  94  18  19  18  18  19  17  18  18  18  18
 18  17  18  18  18  17  18  17  22  27  37  55  76 111 178 218 218
219 219 220 220 221 222 222 221 221 222 222 221 220 132  17  18  18
 18  18  18  18  18  17  19  17  18  18  18  18  18  18  18  18  17
 18  18  18  18  17  18  18  18  15 213 219 220 220 220 220 220 220
220 200 142  89  57  33  18  20  21  22  22  23  24  25  25  24  24
 23  22  19  22  43  80 170 221 222 223 225 225 224 215 199 175 145
115  95  85  81  77  73  68  67  67  64  60  59  61  69  81 103 134
171 204 231 246 253 255 255 255 255 255 255 255 255 255 255 255 255
215 198 188 189 189 188 189 189 189 188 188 189 189 188 188 189 189
189 191 193 195 198 203 211 218 220 220 220 221 221 222 223 223 223
224 224 224 224 224 223 223 223 209 193 193 193 192 192 192 191 191
190 190 189 189 189 188 188 189 189 189 189 189 189 190 190 191 191
192 192 192 192 220 221 221 221 222 222 222 221 222 222 222 220 213
203 183 133 111  91  69  49  27  14  14  31  50  67 100 165 199 208
221 222 222 224 225 227 228 225 215 195 168 137 107  90  81  77  75
 73  71  70  69  66  61  58  57  60  66  80 105 139 175 213 235 249
255 255 255 255 255 255 255 255 255 255 255 255 218 218 218 218 218
218 218 218 218 218 218 218 218 218 219 218 218 219 219 219 220 220
220 221 221 222 222 224 224 225 225 225 226 226 226 227 227 227 226
226 226 225 225 224 223 223 222 221 221 221 220 219 220 219 219 219
219 218 219 218 218 219 219 219 220 220 220 220 221 222 222 222 223
223 224 224 224 224 224 224 224 224 223 223 222 222 221 221 221 221
221 220 220 220 220 220 221 220 221 222 222 222 223 224 226 227 228
229 230 227 214 195 166 132 104  88  79  75  74  74  75  77  75  72
 63  57  54  55  58  65  81 107 148 187 220 243 251 255 255 255 255
255 255 255 255 255 255 255 221 222 221 221 221 221 221 221 221 221
221 221 221 222 221 222 221 222 222 222 223 223 224 224 225 226 226
227 227 228 228 229 229 229 229 229 230 230 229 229 229 228 227 227
226 226 225 224 223 224 223 222 222 222 221 221 222 221 221 222 221
222 221 222 222 223 223 224 224 224 225 225 225 226 226 227 227 227
227 226 226 226 226 225 225 224 224 224 224 223 223 223 223 222 222
222 223 223 223 224 225 226 226 227 228 229 231 232 233 229 216 195
165 130 101  85  78  73  73  77  83  88  87  78  67  58  53  52  54
 56  65  83 120 166 205 234 249 255 255 255 255 255 255 255 255 255
255 255 224 224 224 224 224 224 224 224 224 224 224 224 224 225 225
224 225 225 225 226 226 226 227 227 228 228 229 229 229 230 231 231
232 232 232 232 232 232 231 232 231 231 230 230 229 228 228 227 226
226 226 226 225 225 225 224 224 225 224 225 224 224 225 225 225 226
226 227 227 227 228 228 228 229 229 229 229 229 229 229 229 228 228
228 227 227 227 227 226 226 225 226 225 225 225 226 225 226 226 227
227 228 229 230 231 232 233 234 235 231 220 198 167 132 102  81  72
 70  71  77  90  98 102  88  72  60  53  52  51  52  55  70 101 148
191 224 246 253 255 255 255 255 255 255 255 255 255 255 227 227 227
227 227 227 227 227 227 227 227 228 228 228 228 228 228 228 229 229
229 229 230 230 230 231 232 232 232 233 234 234 234 235 235 235 235
235 235 234 234 233 232 232 231 231 231 230 229 229 229 228 228 228
228 228 228 227 227 228 228 228 228 228 228 229 229 230 230 230 230
231 231 232 231 231 232 232 232 232 232 231 231 231 230 230 229 229
229 229 228 228 228 228 228 228 229 229 229 230 230 231 231 232 234
234 236 237 238 235 224 203 171 135 103  80  70  67  70  79  93 108
115 102  82  66  56  52  50  50  53  64  93 137 184 222 245 253 255
255 255 255 255 255 255 255 255 255 230 231 230 230 230 230 230 230
230 230 231 231 231 230 230 231 231 232 232 232 232 232 233 233 234
234 235 235 235 236 236 237 237 238 237 238 237 237 237 237 236 236
235 235 234 234 233 233 233 232 232 232 231 231 231 231 230 230 230
230 231 231 231 231 232 232 232 233 233 233 233 233 234 234 234 234
234 234 234 234 234 234 233 233 233 232 233 232 231 231 231 231 231
231 231 231 231 232 232 232 233 234 235 235 236 237 238 239 239 237
228 209 178 141 107  83  72  67  69  75  88 109 121 114  93  73  57
 52  50  50  52  65  92 135 182 221 245 253 255 255 255 255 255 255
255 255 255 255 233 233 233 233 233 233 233 233 233 233 233 233 234
233 234 234 234 234 234 234 235 235 236 236 236 237 237 237 238 238
239 239 239 240 240 240 240 239 239 239 239 238 238 237 237 236 236
235 235 235 235 234 234 234 233 233 233 233 233 233 233 233 234 234
234 234 235 235 235 236 236 236 236 237 237 237 237 237 237 237 237
237 236 236 235 235 235 235 234 234 234 234 234 234 234 234 234 235
235 235 236 237 237 238 238 239 240 241 242 241 234 217 187 149 113
 87  73  67  65  69  82 103 118 117 100  78  62  54  52  51  55  68
 96 141 184 221 245 253 255 255 255 255 255 255 255 255 255 255 236
236 236 236 236 236 236 236 236 236 236 236 237 236 237 237 237 237
237 237 237 238 238 239 239 239 240 240 240 241 241 241 242 242 242
242 242 242 242 241 241 241 240 240 239 239 238 238 238 238 237 237
237 237 237 237 237 236 236 236 236 236 237 237 237 237 237 238 238
238 238 238 239 239 239 239 239 239 239 239 239 239 239 238 238 238
237 237 237 237 237 236 236 237 237 237 237 237 237 238 238 239 240
240 241 242 242 244 244 244 238 222 196 160 122  91  73  63  59  63
 74  91 106 109 102  84  68  60  57  56  62  74 105 149 190 226 247
255 255 255 255 255 255 255 255 255 255 255 239 239 239 239 239 239
239 239 239 239 239 239 239 239 239 239 239 239 240 240 240 240 241
241 241 242 242 242 243 243 243 244 244 244 244 244 244 244 244 244
243 243 243 242 242 241 241 241 240 240 240 239 240 239 239 239 239
239 239 239 239 239 239 240 240 240 240 240 240 241 241 241 241 242
242 242 242 242 242 242 241 241 241 241 240 240 240 240 239 239 239
239 239 239 239 239 239 240 240 240 241 241 242 243 243 244 244 245
246 247 242 229 205 169 129  96  72  61  57  60  68  78  89  92  90
 83  71  63  59  60  65  80 111 153 195 228 246 255 255 255 255 255
255 255 255 255 255 255 241 242 241 241 241 241 241 241 241 242 242
242 241 242 242 242 242 242 242 242 243 243 243 243 244 244 244 245
245 245 245 246 246 246 246 246 246 246 246 245 245 245 245 244 244
244 243 243 243 242 242 242 242 242 241 241 241 242 242 241 241 242
242 242 242 242 242 243 243 243 243 243 243 244 244 244 244 244 244
244 243 243 243 243 243 243 242 242 242 242 242 241 241 241 242 242
242 242 242 243 243 243 244 244 245 246 246 247 247 248 245 234 210
177 137 100  75  62  58  60  63  68  71  74  74  71  66  60  58  56
 63  79 111 156 197 227 247 254 255 255 255 255 255 255 255 255 255
255 244 244 244 244 244 244 244 244 244 244 244 244 244 244 244 244
244 244 244 244 245 245 245 245 246 246 246 246 247 247 247 247 248
248 247 247 248 247 247 247 247 246 246 246 246 245 245 245 245 244
244 244 244 244 244 244 244 244 244 244 244 244 244 244 244 244 244
245 245 245 245 245 245 246 246 246 246 246 246 246 246 245 245 245
245 245 244 244 244 244 244 244 244 244 244 244 244 244 244 245 245
245 246 246 247 247 248 248 249 250 247 238 217 186 147 107  78  65
 59  57  58  59  58  60  63  62  60  55  53  51  57  75 111 154 197
228 246 253 255 255 255 255 255 255 255 255 255 255 245 245 245 246
245 245 245 245 245 245 245 245 245 245 245 245 246 246 246 246 247
247 247 247 247 248 248 248 248 249 249 249 249 249 249 249 249 249
249 248 248 248 248 247 248 247 247 247 246 246 246 246 246 246 246
246 246 246 246 246 246 246 246 246 246 246 246 246 246 247 247 247
247 247 247 247 247 247 247 247 247 247 247 247 247 246 246 246 246
246 246 246 246 246 246 246 246 246 246 247 247 247 248 248 248 249
249 250 250 251 249 243 224 195 157 118  84  64  56  54  56  57  54
 53  56  56  55  53  51  51  57  78 115 158 200 229 246 253 255 255
255 255 255 255 255 255 255 255 244 244 244 244 244 244 243 243 242
243 242 243 243 244 245 245 246 246 247 247 248 248 249 249 249 249
249 249 250 250 250 250 250 250 250 250 250 250 250 250 250 249 249
249 249 249 248 248 248 248 248 248 247 248 248 247 248 247 248 248
248 248 247 248 248 248 248 248 248 248 249 248 249 249 249 249 249
249 249 249 249 249 249 248 248 248 248 248 248 248 248 247 247 247
247 248 247 248 248 248 248 249 249 249 250 250 250 251 251 252 251
245 231 205 170 130  94  68  56  55  56  56  54  53  56  54  53  51
 53  56  66  87 125 169 208 231 247 254 255 255 255 255 255 255 255
255 255 255 236 235 235 236 235 235 234 233 233 234 234 233 234 236
237 237 239 242 244 245 247 247 248 249 249 249 250 250 251 251 251
251 251 251 251 251 251 251 251 251 251 251 250 250 250 250 250 250
250 249 249 248 248 248 248 248 248 248 248 248 248 248 248 248 248
250 249 249 249 250 249 249 249 249 249 249 249 249 249 249 249 249
250 249 249 249 250 249 249 249 249 249 249 249 249 249 249 249 249
250 250 250 250 251 251 251 251 252 252 252 252 248 236 215 186 148
110  84  69  64  63  62  61  59  59  58  53  53  57  65  82 105 143
184 217 238 250 255 255 255 255 255 255 255 255 255 255 255 219 220
220 221 218 220 216 217 215 216 214 218 218 220 221 224 226 229 233
235 239 242 243 246 246 247 248 248 249 249 249 250 250 251 251 251
251 252 252 252 252 252 252 251 250 250 249 249 248 248 247 246 246
245 245 245 244 244 244 244 244 244 245 245 246 246 246 247 247 247
247 247 247 247 247 247 247 247 247 247 247 247 247 247 248 248 248
249 248 249 249 250 250 250 250 250 250 250 250 251 251 251 251 251
252 252 252 253 253 253 253 250 243 228 205 173 138 112  96  87  81
 78  78  75  71  67  62  63  70  84 105 134 169 203 229 245 252 255
255 255 255 255 255 255 255 255 255 255 196 197 197 199 196 197 193
195 191 192 190 194 194 197 198 202 205 210 215 219 223 228 232 233
235 236 238 238 240 241 243 244 245 246 248 249 248 249 249 249 249
249 248 247 245 245 244 242 240 238 238 237 235 234 234 234 232 232
232 231 231 232 234 235 236 237 236 237 238 238 238 238 239 238 238
238 238 237 237 239 238 238 239 239 239 239 240 242 244 246 247 249
249 251 251 251 251 252 252 252 252 252 252 252 252 253 253 253 253
253 254 252 248 237 222 201 175 149 133 123 116 112 108 103  95  91
 87  90  96 114 137 170 196 222 240 250 254 255 255 255 255 255 255
255 255 255 255 255 171 172 172 172 171 170 169 167 167 166 167 167
169 172 173 176 180 184 189 195 203 207 211 212 218 217 221 220 224
224 228 229 233 235 236 236 237 237 237 237 237 237 237 236 233 231
230 226 224 222 222 218 219 214 215 213 214 212 211 210 211 212 212
215 216 219 219 221 219 221 219 221 220 221 220 220 219 219 220 220
222 221 223 222 224 224 226 227 232 234 239 244 247 249 251 252 252
252 252 253 253 253 253 253 253 253 254 254 254 254 254 254 251 246
238 223 207 189 175 165 160 154 149 145 137 131 127 130 137 155 175
199 219 238 247 254 255 255 255 255 255 255 255 255 255 255 255 255
150 150 151 150 151 149 149 147 147 146 147 147 148 150 151 153 156
161 166 170 176 180 185 187 193 192 197 196 202 201 205 206 212 211
214 214 213 214 213 213 212 212 211 210 210 206 205 202 203 196 197
192 194 189 190 187 188 185 185 184 185 186 187 190 191 195 194 197
195 198 195 197 196 198 196 196 195 196 196 196 198 198 201 198 201
199 206 206 212 216 226 231 239 244 249 251 253 253 253 253 253 253
253 254 254 254 254 254 254 254 254 254 254 251 246 238 229 219 211
204 200 196 191 186 181 175 172 174 181 196 208 225 238 248 254 255
255 255 255 255 255 255 255 255 255 255 255 255 137 137 140 140 138
136 137 138 137 134 136 138 138 137 137 139 141 143 146 150 153 159
162 164 164 168 169 170 172 174 177 178 182 184 184 183 182 182 181
181 180 180 180 180 178 174 174 172 170 169 168 167 164 164 163 162
162 161 160 160 160 161 163 165 167 169 169 169 169 169 170 170 170
170 170 170 169 169 169 170 171 171 172 173 173 174 177 180 186 191
202 213 224 234 243 249 252 253 254 254 254 254 254 254 254 254 254
254 255 255 255 255 255 254 252 249 244 238 235 233 229 226 225 221
216 212 211 213 217 226 233 243 250 253 255 255 255 255 255 255 255
255 255 255 255 255 255 255 131 132 135 136 133 130 132 134 133 130
131 134 134 132 132 134 135 134 135 138 141 143 143 144 145 147 147
150 149 151 152 153 154 155 156 155 154 153 152 152 151 151 151 152
150 151 149 149 146 146 144 145 143 143 143 143 142 142 141 141 141
142 143 145 147 147 150 149 149 148 150 150 150 149 150 150 149 148
149 150 150 151 151 152 151 153 153 158 161 167 174 189 204 217 230
241 248 252 253 254 254 254 254 254 254 254 255 255 255 255 255 255
255 255 255 253 252 250 250 248 248 247 246 244 240 237 236 237 238
243 248 251 254 255 255 255 255 255 255 255 255 255 255 255 255 255
255 255 130 131 134 135 132 130 132 134 133 130 132 134 133 130 130
132 132 130 130 132 134 133 132 135 135 136 134 135 136 136 136 136
137 138 138 137 136 135 135 135 135 135 136 135 134 134 135 134 133
133 132 134 133 133 131 133 134 133 131 131 133 134 133 133 136 137
136 134 136 136 136 135 136 137 137 136 135 136 137 136 136 138 139
138 136 137 139 141 141 146 153 165 182 199 215 230 243 250 253 255
255 255 255 255 255 255 255 255 255 255 255 255 255 255 255 255 255
254 254 254 254 254 254 252 251 250 250 250 250 252 253 255 255 255
255 255 255 255 255 255 255 255 255 255 255 255 255 255 136 136 139
139 138 135 137 138 139 138 138 139 138 136 135 135 134 131 131 133
132 131 129 130 132 131 128 130 132 131 129 130 131 131 130 129 129
129 129 129 129 129 129 130 130 130 129 130 131 130 129 130 131 130
129 130 131 131 129 129 131 131 130 130 132 132 131 130 131 132 131
129 131 133 132 131 131 132 132 131 131 134 134 132 130 132 134 134
132 134 140 151 161 175 193 213 230 242 249 253 255 255 255 255 255
255 255 255 255 255 255 255 255 255 255 255 255 255 255 255 255 255
255 255 255 254 254 254 254 255 255 255 255 255 255 255 255 255 255
255 255 255 255 255 255 255 255 255 148 149 150 150 151 149 151 150
152 152 153 151 150 148 145 142 139 138 137 136 134 132 130 131 132
130 128 129 130 129 128 128 129 129 128 128 128 128 128 128 128 128
128 128 128 129 129 129 129 129 129 130 130 130 130 130 131 131 130
130 131 131 130 131 131 131 131 130 131 131 131 130 130 132 131 130
130 132 132 130 130 133 133 131 129 131 132 131 129 131 134 139 146
156 171 192 213 229 241 249 253 253 254 254 255 255 255 255 255 255
255 255 255 255 255 255 255 255 255 255 255 255 255 255 255 255 255
255 255 255 255 255 255 255 255 255 255 255 255 255 255 255 255 255
255 255 255 255 165 168 169 171 171 172 172 173 174 175 174 174 170
167 163 159 154 151 147 143 139 136 134 134 132 131 130 130 130 129
129 128 128 128 128 128 128 128 128 128 128 128 128 128 128 128 128
128 128 128 128 128 129 129 129 129 130 130 130 130 130 131 131 131
132 131 131 130 131 131 131 131 132 132 132 132 132 132 133 133 133
135 135 134 133 134 133 132 130 131 132 133 135 141 153 170 191 209
225 236 244 248 250 251 253 253 254 254 255 255 255 255 255 255 255
255 255 255 255 255 255 255 255 255 255 255 255 255 255 255 255 255
255 255 255 255 255 255 255 255 255 255 255 255 255 255 255 255 179
185 189 195 195 199 197 203 200 202 200 199 194 191 184 177 170 164
157 152 144 142 138 136 134 133 131 130 130 129 129 129 128 128 128
128 128 128 128 128 128 128 128 128 128 128 128 128 128 128 128 128
128 129 129 129 129 130 130 130 130 131 131 132 132 132 131 131 131
132 132 132 133 133 133 134 134 134 135 136 136 138 137 139 137 137
135 134 133 132 131 129 130 134 141 152 168 185 202 216 227 233 238
241 244 246 249 251 252 252 252 253 252 253 253 252 252 252 252 254
254 255 255 255 255 255 255 255 255 255 255 255 255 255 255 255 255
255 255 255 255 255 255 255 255 255 255 255 182 191 198 208 213 220
221 223 222 223 219 216 210 204 195 187 177 169 160 152 147 142 139
135 134 132 131 130 130 129 129 129 129 128 128 128 129 128 128 129
129 129 129 129 129 129 128 128 128 129 128 128 128 129 129 128 129
130 130 129 129 130 131 131 130 131 131 131 130 131 132 132 132 132
132 133 134 134 135 136 137 138 139 138 139 139 137 136 134 132 130
129 129 130 134 139 147 160 173 187 201 209 218 220 226 229 234 235
238 240 241 242 242 241 240 240 241 242 244 247 250 252 252 253 253
254 254 254 254 255 255 255 255 255 255 255 255 255 255 255 255 255
255 255 255 255 255 255 171 182 194 206 217 226 230 234 233 231 224
218 208 200 190 179 169 161 152 145 141 137 136 134 132 130 130 130
129 128 129 130 131 130 130 131 131 132 133 133 133 134 134 133 133
132 131 130 131 131 130 129 130 130 130 128 129 129 128 128 128 129
130 129 128 129 130 129 128 129 131 131 130 130 130 131 131 131 132
133 134 134 135 135 137 135 136 134 133 131 130 129 128 129 129 131
134 140 149 159 170 178 185 190 196 200 205 208 212 213 217 216 216
216 213 212 213 216 221 228 234 239 242 245 246 247 248 250 251 253
253 254 254 254 255 255 255 255 255 255 255 255 255 255 255 255 255
255 155 166 174 188 202 214 219 223 220 217 207 198 188 179 169 159
153 146 143 137 134 132 132 132 130 128 129 131 131 130 132 133 136
136 137 138 140 143 145 146 147 147 147 146 145 143 142 140 139 137
137 136 135 135 134 132 132 132 131 129 129 131 131 129 128 129 130
130 128 129 130 130 128 128 129 130 128 128 130 131 130 129 131 131
131 130 131 131 130 129 129 128 128 128 128 128 129 131 134 138 143
149 155 157 162 166 170 172 177 178 180 181 181 180 178 176 179 183
188 199 208 218 223 228 230 232 235 239 240 244 246 249 251 252 253
254 255 254 254 254 255 255 255 255 255 255 255 255 141 146 155 163
178 186 193 194 191 186 177 168 161 154 148 142 138 135 134 132 130
128 130 132 132 130 132 133 135 136 138 141 145 148 151 154 156 161
163 166 167 168 166 166 162 161 158 156 154 152 151 149 148 145 144
141 140 139 137 136 135 135 135 134 132 133 133 132 130 132 132 131
129 129 130 129 128 128 129 129 128 128 128 129 128 128 128 129 129
128 128 128 128 128 128 128 128 128 129 130 132 133 135 136 138 140
143 144 146 148 149 150 149 148 146 146 147 151 157 167 176 190 194
203 205 211 212 218 220 225 226 228 231 236 240 244 248 249 252 252
253 254 253 252 248 244 242 244
